<?xml version="1.0" encoding="utf-8"?>
<!-- Generator: Adobe Illustrator 16.0.0, SVG Export Plug-In . SVG Version: 6.00 Build 0)  -->
<!DOCTYPE svg PUBLIC "-//W3C//DTD SVG 1.1//EN" "http://www.w3.org/Graphics/SVG/1.1/DTD/svg11.dtd">
<svg version="1.1" xmlns="http://www.w3.org/2000/svg" xmlns:xlink="http://www.w3.org/1999/xlink" x="0px" y="0px" width="50px"
	 height="155px" viewBox="0 0 50 155" enable-background="new 0 0 50 155" xml:space="preserve">
<g id="Layer_1" display="none">
	<g display="inline" opacity="0.4">
		<defs>
			<rect id="SVGID_1_" x="-658.722" y="-285.848" opacity="0.4" width="1366" height="768"/>
		</defs>
		<clipPath id="SVGID_2_">
			<use xlink:href="#SVGID_1_"  overflow="visible"/>
		</clipPath>
		<path clip-path="url(#SVGID_2_)" fill="#FFFFFF" d="M-234.09,232.797c-34.89,0-68.605-10.485-97.502-30.323
			c-29.521-20.266-51.661-48.82-64.023-82.574c-15.801-43.141-13.855-89.852,5.477-131.528
			c19.332-41.678,53.737-73.332,96.878-89.133c19.099-6.995,38.995-10.542,59.136-10.542c34.89,0,68.606,10.486,97.502,30.323
			c29.522,20.266,51.661,48.82,64.024,82.574c32.616,89.056-13.3,188.045-102.356,220.662
			C-194.053,229.25-213.949,232.797-234.09,232.797"/>
		<path clip-path="url(#SVGID_2_)" d="M-234.106-98.804c32.346,0,63.611,9.728,90.415,28.131
			c27.367,18.789,47.892,45.265,59.356,76.565c14.651,40.005,12.848,83.322-5.08,121.97c-17.927,38.649-49.832,68.003-89.837,82.655
			c-17.718,6.489-36.167,9.779-54.837,9.779c-32.353,0-63.622-9.727-90.428-28.129c-27.369-18.788-47.895-45.265-59.36-76.567
			c-14.652-40.005-12.848-83.321,5.079-121.97c17.927-38.648,49.832-68.002,89.838-82.654c17.712-6.488,36.163-9.778,54.847-9.78
			H-234.106 M-234.124-123.804c-21.065,0.002-42.505,3.639-63.436,11.305c-95.68,35.043-144.836,141.016-109.793,236.697
			c27.378,74.751,98.031,121.099,173.263,121.099c21.065,0,42.505-3.639,63.435-11.305C-74.974,198.948-25.817,92.975-60.861-2.706
			C-88.239-77.457-158.892-123.811-234.124-123.804"/>
	</g>
	<rect x="-196.222" y="-7.348" display="inline" opacity="0.4" fill="#FFFFFF" width="351" height="146"/>
	<path display="inline" opacity="0.4" fill="#FFFFFF" d="M142.278,126.152h-326v-121h326V126.152z M167.278-19.848h-376v171h376
		V-19.848z"/>
	<rect x="-233.722" y="53.152" display="inline" opacity="0.4" fill="#29ABE2" width="0.01" height="144"/>
	<rect x="-233.722" y="53.152" display="inline" opacity="0.4" fill="#29ABE2" width="0.01" height="144"/>
	
		<line display="inline" opacity="0.4" fill="none" stroke="#D83406" stroke-width="20" stroke-miterlimit="10" x1="-233.222" y1="60.652" x2="-233.222" y2="198.652"/>
	
		<line display="inline" opacity="0.4" fill="none" stroke="#D83406" stroke-width="19" stroke-miterlimit="10" x1="-326.722" y1="62.652" x2="-223.222" y2="62.652"/>
	
		<line display="inline" opacity="0.4" fill="none" stroke="#000000" stroke-width="7" stroke-miterlimit="10" x1="-386.56" y1="60.652" x2="-338.884" y2="60.652"/>
	
		<line display="inline" opacity="0.4" fill="none" stroke="#000000" stroke-width="7" stroke-miterlimit="10" x1="-312.502" y1="-67.471" x2="-286.942" y2="-27.225"/>
	
		<line display="inline" opacity="0.4" fill="none" stroke="#000000" stroke-width="7" stroke-miterlimit="10" x1="-233.722" y1="-93.186" x2="-233.722" y2="-45.51"/>
	
		<line display="inline" opacity="0.4" fill="none" stroke="#000000" stroke-width="7" stroke-miterlimit="10" x1="-156.803" y1="-67.992" x2="-180.641" y2="-26.703"/>
	
		<line display="inline" opacity="0.4" fill="none" stroke="#000000" stroke-width="7" stroke-miterlimit="10" x1="-362.528" y1="-19.613" x2="-322.917" y2="6.917"/>
	
		<line display="inline" opacity="0.4" fill="none" stroke="#000000" stroke-width="7" stroke-miterlimit="10" x1="-150.636" y1="6.756" x2="-110.809" y2="-19.451"/>
	
		<text transform="matrix(1 0 0 1 -228.7222 103.5527)" display="inline" opacity="0.4" fill="#FF0000" font-family="'PTSans-Regular'" font-size="72"> IME</text>
	
		<rect x="-202.011" y="53.152" display="inline" opacity="0.4" fill="none" stroke="#D83406" stroke-miterlimit="10" width="5.976" height="50.4"/>
	<polygon display="inline" opacity="0.4" fill="none" stroke="#D83406" stroke-miterlimit="10" points="-143.691,103.553 
		-137.715,103.553 -137.715,53.152 -142.396,53.152 -157.443,78.784 -159.675,84.544 -159.819,84.544 -162.195,78.928 
		-177.963,53.152 -182.427,53.152 -182.427,103.553 -176.812,103.553 -176.812,69.64 -177.819,62.152 -177.459,62.152 
		-174.867,68.992 -160.971,91.816 -159.171,91.816 -146.067,69.064 -143.332,62.152 -142.971,62.152 -143.691,69.712 	"/>
	<polygon display="inline" opacity="0.4" fill="none" stroke="#D83406" stroke-miterlimit="10" points="-125.476,103.553 
		-97.684,103.553 -97.684,98.225 -119.5,98.225 -119.5,80.296 -99.844,80.296 -99.844,74.968 -119.5,74.968 -119.5,58.48 
		-98.044,58.48 -98.044,53.152 -125.476,53.152 	"/>
	
		<text transform="matrix(1 0 0 1 -95.7222 132.3516)" display="inline" opacity="0.4" font-family="'Menlo-Regular'" font-size="170">RUNCH</text>
	<g display="inline" opacity="0.4">
		<defs>
			<rect id="SVGID_3_" x="-658.722" y="-285.848" opacity="0.4" width="1366" height="768"/>
		</defs>
		<clipPath id="SVGID_4_">
			<use xlink:href="#SVGID_3_"  overflow="visible"/>
		</clipPath>
		<path clip-path="url(#SVGID_4_)" fill="none" stroke="#000000" stroke-miterlimit="10" d="M-49.32,22.201
			c7.968,0,14.041,1.896,18.22,5.686c4.178,3.791,6.267,9.255,6.267,16.394c0,7.416-1.965,12.921-5.894,16.518
			c-3.929,3.598-9.906,5.396-17.929,5.396h-18.345V22.201H-49.32z M-13.835,64.327c4.454-5.174,6.683-11.856,6.683-20.046
			c0-11.621-3.625-20.503-10.874-26.646c-7.25-6.142-17.681-9.214-31.294-9.214h-34.532v123.931h16.851V79.974h16.02
			c5.479,0,9.92,1.287,13.323,3.86c3.404,2.573,7.235,8.315,11.497,17.224l14.775,31.294H6.626l-16.851-33.867
			c-4.538-9.186-8.329-15.315-11.372-18.387c-3.044-3.071-6.723-5.159-11.04-6.267C-24.558,72.668-18.291,69.501-13.835,64.327z"/>
		<path clip-path="url(#SVGID_4_)" fill="none" stroke="#000000" stroke-miterlimit="10" d="M21.236,111.725
			c1.604,5.45,4.316,9.892,8.135,13.322c3.707,3.266,7.913,5.7,12.617,7.305c4.703,1.604,9.961,2.407,15.771,2.407
			c5.866,0,11.151-0.803,15.855-2.407c4.703-1.604,8.882-4.039,12.534-7.305c3.873-3.486,6.599-7.898,8.177-13.239
			c1.576-5.341,2.365-14.347,2.365-27.02V8.421H79.922v84.17c0,5.976-0.166,10.238-0.498,12.783
			c-0.332,2.546-0.913,4.511-1.743,5.894c-1.826,3.266-4.399,5.728-7.72,7.388s-7.388,2.49-12.203,2.49
			c-4.759,0-8.813-0.83-12.16-2.49c-3.349-1.66-5.907-4.122-7.678-7.388c-0.831-1.383-1.412-3.361-1.743-5.936
			c-0.332-2.573-0.498-6.875-0.498-12.907V8.421H18.829v76.367C18.829,97.295,19.631,106.274,21.236,111.725z"/>
		<polygon clip-path="url(#SVGID_4_)" fill="none" stroke="#000000" stroke-miterlimit="10" points="110.552,132.352 
			128.399,132.352 128.399,30.667 176.875,132.352 199.786,132.352 199.786,8.835 181.939,8.835 181.939,110.521 133.462,8.835 
			110.552,8.835 		"/>
		<path clip-path="url(#SVGID_4_)" fill="none" stroke="#000000" stroke-miterlimit="10" d="M300.391,110.77
			c-4.04,3.376-8.398,5.949-13.074,7.72c-4.677,1.771-9.449,2.656-14.318,2.656c-10.902,0-19.064-4.205-24.487-12.617
			c-5.424-8.411-8.135-21.084-8.135-38.018c0-16.988,2.711-29.688,8.135-38.1c5.423-8.412,13.585-12.618,24.487-12.618
			c4.759,0,9.49,0.886,14.194,2.657c4.703,1.771,9.103,4.344,13.198,7.719V12.986c-4.262-2.269-8.633-3.97-13.115-5.105
			c-4.482-1.134-9.242-1.702-14.277-1.702c-15.771,0-28.071,5.659-36.896,16.975c-8.828,11.318-13.24,27.102-13.24,47.356
			c0,20.365,4.385,36.164,13.156,47.397c8.77,11.234,21.098,16.851,36.98,16.851c5.035,0,9.795-0.568,14.277-1.701
			c4.482-1.134,8.854-2.836,13.115-5.105V110.77z"/>
		<polygon clip-path="url(#SVGID_4_)" fill="none" stroke="#000000" stroke-miterlimit="10" points="325.044,132.352 
			341.895,132.352 341.895,70.013 387.798,70.013 387.798,132.352 404.648,132.352 404.648,8.42 387.798,8.42 387.798,55.901 
			341.895,55.901 341.895,8.42 325.044,8.42 		"/>
	</g>
	
		<rect x="-91.223" y="149.633" transform="matrix(1 -0.008 0.008 1 -1.269 1.2607)" display="inline" opacity="0.4" width="498.092" height="20.991"/>
	
		<rect x="-91.223" y="149.633" transform="matrix(1 -0.008 0.008 1 -1.269 1.2607)" display="inline" opacity="0.4" fill="none" stroke="#000000" stroke-miterlimit="10" width="498.092" height="20.991"/>
</g>
<g id="Layer_2" display="none">
	<polygon display="inline" fill="#AAAAAA" points="-300.451,81.264 -300.451,66.931 -300.485,66.931 -314.784,66.931 
		-314.818,66.931 -368.464,66.931 -368.464,81.264 -314.818,81.264 -314.818,169.115 -314.784,169.115 -300.485,169.115 
		-300.451,169.115 -300.451,98.76 -300.451,87.282 -300.485,87.282 -300.485,81.264 	"/>
	<g display="inline">
		<polygon fill="#AAAAAA" points="-285.773,78.052 -285.773,106.775 -279.921,106.775 -279.921,78.052 -279.921,73.365 
			-285.773,73.365 		"/>
		<rect x="-285.773" y="65.056" fill="#AAAAAA" width="5.852" height="5.852"/>
		<polygon fill="#AAAAAA" points="-268.234,78.052 -268.234,106.775 -262.382,106.775 -262.382,78.052 -262.382,73.365 
			-268.234,73.365 		"/>
		<rect x="-268.234" y="65.056" fill="#AAAAAA" width="40.929" height="5.852"/>
		<polygon fill="#AAAAAA" points="-250.696,78.052 -250.696,106.775 -244.844,106.775 -244.844,78.052 -244.844,73.365 
			-250.696,73.365 		"/>
		<polygon fill="#AAAAAA" points="-233.158,78.052 -233.158,106.775 -227.306,106.775 -227.306,78.052 -227.306,73.365 
			-233.158,73.365 		"/>
		<polygon fill="#AAAAAA" points="-209.769,74.759 -209.769,73.365 -215.619,73.365 -215.619,74.759 -215.619,83.3 -215.619,87.519 
			-215.619,88.533 -215.619,89.4 -215.619,100.924 -215.619,106.775 -192.229,106.775 -192.229,100.924 -209.769,100.924 
			-209.769,89.4 -209.769,88.533 -192.229,88.533 -192.229,83.3 -209.769,83.3 		"/>
		<rect x="-215.619" y="65.056" fill="#AAAAAA" width="23.39" height="5.852"/>
	</g>
	<polygon display="inline" fill="#BC2424" points="-297.269,78.082 -297.269,63.749 -297.303,63.749 -311.602,63.749 
		-311.636,63.749 -365.282,63.749 -365.282,78.082 -311.636,78.082 -311.636,165.933 -311.602,165.933 -297.303,165.933 
		-297.269,165.933 -297.269,95.578 -297.269,84.1 -297.303,84.1 -297.303,78.082 	"/>
	<g display="inline">
		<polygon fill="#BC2424" points="-284.466,76.745 -284.466,105.469 -278.614,105.469 -278.614,76.745 -278.614,72.058 
			-284.466,72.058 		"/>
		<rect x="-284.466" y="63.749" fill="#BC2424" width="5.852" height="5.852"/>
		<polygon fill="#BC2424" points="-266.927,76.745 -266.927,105.469 -261.075,105.469 -261.075,76.745 -261.075,72.058 
			-266.927,72.058 		"/>
		<rect x="-266.927" y="63.749" fill="#BC2424" width="40.929" height="5.852"/>
		<polygon fill="#BC2424" points="-249.389,76.745 -249.389,105.469 -243.537,105.469 -243.537,76.745 -243.537,72.058 
			-249.389,72.058 		"/>
		<polygon fill="#BC2424" points="-231.851,76.745 -231.851,105.469 -225.999,105.469 -225.999,76.745 -225.999,72.058 
			-231.851,72.058 		"/>
		<polygon fill="#BC2424" points="-208.461,73.452 -208.461,72.058 -214.312,72.058 -214.312,73.452 -214.312,81.993 
			-214.312,86.211 -214.312,87.226 -214.312,88.093 -214.312,99.617 -214.312,105.469 -190.922,105.469 -190.922,99.617 
			-208.461,99.617 -208.461,88.093 -208.461,87.226 -190.922,87.226 -190.922,81.993 -208.461,81.993 		"/>
		<rect x="-214.312" y="63.749" fill="#BC2424" width="23.39" height="5.852"/>
	</g>
	<rect x="-305.469" y="-61.817" display="inline" width="2" height="14"/>
	
		<rect x="-242.587" y="-44.966" transform="matrix(0.8661 0.4999 -0.4999 0.8661 -51.3354 115.6893)" display="inline" width="2" height="14"/>
	
		<rect x="-242.628" y="172.856" transform="matrix(-0.866 0.5 -0.5 -0.866 -360.9473 456.4331)" display="inline" width="2" height="14"/>
	<rect x="-305.516" y="189.684" display="inline" width="2" height="14"/>
	
		<rect x="-368.392" y="172.809" transform="matrix(-0.8659 -0.5001 0.5001 -0.8659 -775.463 151.7696)" display="inline" width="1.999" height="14"/>
	
		<rect x="-414.403" y="126.754" transform="matrix(-0.4996 -0.8663 0.8663 -0.4996 -735.7894 -157.5534)" display="inline" width="2" height="14"/>
	<rect x="-437.219" y="69.862" display="inline" width="13.999" height="2"/>
	
		<rect x="-414.333" y="0.99" transform="matrix(0.5009 -0.8655 0.8655 0.5009 -213.2248 -353.7623)" display="inline" width="2" height="13.999"/>
	
		<rect x="-368.269" y="-45.012" transform="matrix(0.8666 -0.499 0.499 0.8666 -30.0204 -188.3286)" display="inline" width="2" height="14"/>
	<path display="inline" d="M-99.331,82.704c-9.334,0-17.554,3.438-24.659,10.313c-6.937,6.876-10.403,15.169-10.403,24.879v76.957
		h-22.043v-132h22.043l-0.129,15.211c9.624-11.602,21.354-17.402,35.191-17.402V82.704z"/>
	<path display="inline" d="M20.552,178.739c-10.657,11.946-23.848,17.918-39.574,17.918c-15.211,0-27.888-5.714-38.027-17.145
		c-9.797-11.171-14.695-24.405-14.695-39.703V62.853h22.043v76.957c0,9.712,3.43,18.005,10.294,24.879
		c7.118,6.876,15.396,10.313,24.833,10.313c9.692,0,17.971-3.437,24.833-10.313c6.862-6.874,10.294-15.167,10.294-24.879V62.853
		h22.043v132H20.552V178.739z"/>
	<path display="inline" d="M178.978,117.896c0-9.71-3.432-18.003-10.294-24.879c-6.862-6.874-15.141-10.313-24.833-10.313
		c-9.437,0-17.715,3.438-24.833,10.313c-6.864,6.876-10.294,15.169-10.294,24.879v76.957H86.681v-132h22.043l-0.129,16.113
		c10.655-12.201,23.89-18.305,39.703-18.305c15.038,0,27.715,5.846,38.027,17.531c9.797,11.259,14.695,24.492,14.695,39.703v76.957
		h-22.043V117.896z"/>
	<path display="inline" d="M459.449,117.896c0-9.71-3.432-18.003-10.294-24.879c-6.862-6.874-15.141-10.313-24.833-10.313
		c-9.437,0-17.715,3.438-24.833,10.313c-6.864,6.876-10.294,15.169-10.294,24.879v76.957h-22.043v-286.17h22.043l-0.129,170.283
		c10.655-12.201,23.89-18.305,39.703-18.305c15.038,0,27.715,5.846,38.027,17.531c9.797,11.259,14.695,24.492,14.695,39.703v76.957
		h-22.043V117.896z"/>
	<path display="inline" d="M-304.469,211.183c-77.46,0-140.25-62.79-140.25-140.25s62.79-140.25,140.25-140.25
		c38.73,0,73.79,15.7,99.17,41.08l15.56-15.56c-14.9-14.89-32.25-26.59-51.57-34.76c-20.02-8.47-41.27-12.76-63.16-12.76
		s-43.14,4.29-63.16,12.76c-19.33,8.17-36.67,19.87-51.57,34.76c-14.89,14.9-26.59,32.25-34.76,51.57
		c-8.47,20.02-12.76,41.27-12.76,63.16s4.29,43.14,12.76,63.16c8.17,19.32,19.87,36.67,34.76,51.57
		c14.9,14.89,32.24,26.59,51.57,34.76c20.02,8.47,41.27,12.76,63.16,12.76s43.14-4.29,63.16-12.76
		c19.32-8.17,36.67-19.87,51.57-34.76l-15.56-15.561C-230.679,195.482-265.739,211.183-304.469,211.183z"/>
	<path display="inline" d="M292.821,171.684c-24.78,0-44.86-20.091-44.86-44.86c0-24.771,20.08-44.86,44.86-44.86
		c12.41,0,23.64,5.04,31.76,13.19l17.65-17.65c-12.65-12.68-30.13-20.54-49.41-20.54c-38.521,0-69.86,31.339-69.86,69.86
		c0,38.52,31.34,69.86,69.86,69.86c19.28,0,36.76-7.86,49.41-20.54l-17.65-17.65C316.46,166.644,305.231,171.684,292.821,171.684z"
		/>
</g>
<g id="Layer_3">
	<g>
		<path fill="#FFFFFF" d="M46.387,25.838c0.009-11.789-9.557-21.347-21.345-21.347c-11.79,0-21.346,9.558-21.346,21.347
			c0,17.628,21.346,46.412,21.346,46.412S46.375,43.466,46.387,25.838z"/>
		<path d="M25.042,4.492c11.788,0,21.354,9.558,21.345,21.347C46.375,43.466,25.042,72.25,25.042,72.25S3.696,43.466,3.696,25.838
			C3.696,14.049,13.253,4.492,25.042,4.492 M25.042,0.905c-3.365,0-6.63,0.66-9.707,1.961C12.366,4.122,9.7,5.919,7.412,8.208
			s-4.086,4.955-5.342,7.924c-1.301,3.076-1.961,6.342-1.961,9.707c0,7.939,3.749,18.567,11.141,31.586
			c5.383,9.48,10.688,16.659,10.911,16.961l2.882,3.886l2.882-3.886c0.223-0.303,5.525-7.481,10.906-16.961
			c7.389-13.019,11.14-23.646,11.145-31.584c0.003-3.365-0.656-6.631-1.957-9.708c-1.256-2.97-3.054-5.636-5.343-7.925
			c-2.289-2.288-4.956-4.085-7.926-5.341C31.672,1.564,28.406,0.905,25.042,0.905L25.042,0.905z"/>
	</g>
	<polygon fill="#ABABAB" points="25.807,24.974 25.803,24.974 23.614,24.974 23.609,24.974 15.397,24.974 15.397,27.168 
		23.609,27.168 23.609,40.615 23.614,63.688 25.803,63.688 25.807,63.688 	"/>
	<polygon fill="#BC2424" points="26.092,24.69 26.087,24.69 23.898,24.69 23.893,24.69 15.682,24.69 15.682,26.884 23.893,26.884 
		23.893,40.331 23.898,63.405 26.087,63.405 26.092,63.405 	"/>
	<rect x="34.461" y="8.051" transform="matrix(0.8661 0.4999 -0.4999 0.8661 9.1957 -16.0823)" width="0.307" height="2.143"/>
	<rect x="11.966" y="53.616" width="0.307" height="2.143"/>
	<rect x="8.163" y="34.333" transform="matrix(-0.5006 -0.8657 0.8657 -0.5006 -18.1705 60.3282)" width="0.306" height="2.144"/>
	<rect x="4.629" y="25.584" width="2.143" height="0.307"/>
	<rect x="8.174" y="15.084" transform="matrix(0.4994 -0.8664 0.8664 0.4994 -9.8283 15.302)" width="0.306" height="2.143"/>
	<rect x="15.224" y="8.043" transform="matrix(0.8661 -0.4999 0.4999 0.8661 -2.4971 8.9081)" width="0.307" height="2.143"/>
	<rect x="24.889" y="5.472" stroke="#231F20" stroke-miterlimit="10" width="0.307" height="2.143"/>
	
		<rect x="34.461" y="8.051" transform="matrix(0.8661 0.4999 -0.4999 0.8661 9.1957 -16.0823)" stroke="#231F20" stroke-miterlimit="10" width="0.307" height="2.143"/>
	
		<rect x="8.163" y="34.333" transform="matrix(-0.5006 -0.8657 0.8657 -0.5006 -18.1705 60.3282)" stroke="#231F20" stroke-miterlimit="10" width="0.306" height="2.144"/>
	<rect x="4.629" y="25.584" stroke="#231F20" stroke-miterlimit="10" width="2.143" height="0.307"/>
	
		<rect x="8.174" y="15.084" transform="matrix(0.4994 -0.8664 0.8664 0.4994 -9.8283 15.302)" stroke="#231F20" stroke-miterlimit="10" width="0.306" height="2.143"/>
	
		<rect x="15.224" y="8.043" transform="matrix(0.8661 -0.4999 0.4999 0.8661 -2.4971 8.9081)" stroke="#231F20" stroke-miterlimit="10" width="0.307" height="2.143"/>
	<rect x="4.64" y="25.584" stroke="#231F20" stroke-miterlimit="10" width="2.143" height="0.307"/>
	
		<rect x="8.179" y="15.083" transform="matrix(0.4975 -0.8675 0.8675 0.4975 -9.8266 15.3451)" stroke="#231F20" stroke-miterlimit="10" width="0.306" height="2.144"/>
	
		<rect x="41.519" y="15.09" transform="matrix(0.5006 0.8657 -0.8657 0.5006 34.8017 -28.004)" stroke="#231F20" stroke-miterlimit="10" width="0.306" height="2.143"/>
	<rect x="43.176" y="25.634" stroke="#231F20" stroke-miterlimit="10" width="2.144" height="0.307"/>
	
		<rect x="41.512" y="34.339" transform="matrix(-0.5013 0.8653 -0.8653 -0.5013 93.1911 17.1093)" stroke="#231F20" stroke-miterlimit="10" width="0.306" height="2.143"/>
	
		<rect x="8.172" y="34.32" transform="matrix(-0.5006 -0.8657 0.8657 -0.5006 -18.1449 60.3151)" stroke="#231F20" stroke-miterlimit="10" width="0.306" height="2.142"/>
	<rect x="4.64" y="25.584" stroke="#231F20" stroke-miterlimit="10" width="2.143" height="0.307"/>
	
		<rect x="8.179" y="15.083" transform="matrix(0.4975 -0.8675 0.8675 0.4975 -9.8266 15.3451)" stroke="#231F20" stroke-miterlimit="10" width="0.306" height="2.144"/>
	
		<rect x="41.519" y="15.09" transform="matrix(0.5006 0.8657 -0.8657 0.5006 34.8017 -28.004)" stroke="#231F20" stroke-miterlimit="10" width="0.306" height="2.143"/>
	<rect x="43.176" y="25.634" stroke="#231F20" stroke-miterlimit="10" width="2.144" height="0.307"/>
	
		<rect x="41.512" y="34.339" transform="matrix(-0.5013 0.8653 -0.8653 -0.5013 93.1911 17.1093)" stroke="#231F20" stroke-miterlimit="10" width="0.306" height="2.143"/>
	<rect x="24.847" y="67.965" stroke="#231F20" stroke-miterlimit="10" width="0.307" height="2.143"/>
	
		<rect x="8.172" y="34.32" transform="matrix(-0.5006 -0.8657 0.8657 -0.5006 -18.1449 60.3151)" stroke="#231F20" stroke-miterlimit="10" width="0.306" height="2.142"/>
	<g display="none">
		<path display="inline" fill="#BC2424" d="M294.993,34.922l-0.018-0.03l-7.143-12.387l-0.016-0.029l-60.951,35.142l-9.943,5.733
			l0.016,0.029l-2.144,1.236c-1.746-0.871-3.708-1.372-5.792-1.372c-7.193,0-13.025,5.831-13.025,13.025s5.832,13.025,13.025,13.025
			c6.942,0,12.601-5.437,12.988-12.282L294.993,34.922z"/>
		<rect x="190.565" y="154.536" display="inline" width="17.176" height="28.25"/>
		<rect x="170.823" y="154.536" display="inline" width="17.175" height="28.25"/>
		<rect x="151.081" y="154.536" display="inline" width="17.174" height="28.25"/>
		<path display="inline" d="M269.569,185.354H148.512v-33.387h121.057V185.354z M149.802,153.247v30.818h118.483v-30.818H149.802z"
			/>
		<rect x="249.827" y="154.536" display="inline" width="17.174" height="28.25"/>
		<rect x="230.083" y="154.536" display="inline" width="17.175" height="28.25"/>
		<rect x="210.34" y="154.536" display="inline" width="17.176" height="28.25"/>
		<rect x="208.053" y="-56.48" display="inline" width="2" height="14"/>
		
			<rect x="270.936" y="-39.63" transform="matrix(0.8661 0.4999 -0.4999 0.8661 20.1078 -140.3162)" display="inline" width="2" height="14.001"/>
		
			<rect x="99.276" y="131.111" transform="matrix(-0.4992 -0.8665 0.8665 -0.4992 30.6604 293.9417)" display="inline" width="1.999" height="13.999"/>
		<rect x="76.46" y="74.219" display="inline" width="14" height="2"/>
		
			<rect x="99.346" y="5.347" transform="matrix(0.5009 -0.8655 0.8655 0.5009 39.4001 93.015)" display="inline" width="2" height="13.999"/>
		
			<rect x="145.254" y="-39.676" transform="matrix(0.8665 -0.4992 0.4992 0.8665 35.837 68.6454)" display="inline" width="1.999" height="14"/>
		<path display="inline" d="M209.053,216.521c-77.459,0-140.25-62.791-140.25-140.251s62.791-140.25,140.25-140.25
			c38.73,0,73.791,15.7,99.17,41.08l15.561-15.56c-14.9-14.89-32.25-26.59-51.57-34.76c-20.02-8.47-41.27-12.76-63.16-12.76
			c-21.889,0-43.139,4.29-63.16,12.76c-19.33,8.17-36.67,19.87-51.568,34.76c-14.891,14.9-26.59,32.25-34.762,51.57
			c-8.469,20.021-12.76,41.271-12.76,63.16s4.291,43.14,12.76,63.161c8.172,19.32,19.871,36.67,34.762,51.57
			c14.898,14.889,32.238,26.59,51.568,34.76c20.021,8.469,41.271,12.76,63.16,12.76c21.891,0,43.141-4.291,63.16-12.76
			c19.32-8.17,36.67-19.871,51.57-34.76l-15.561-15.561C282.844,200.819,247.784,216.521,209.053,216.521z"/>
		<rect x="208.053" y="-56.48" display="inline" width="2" height="14"/>
		
			<rect x="270.936" y="-39.63" transform="matrix(0.8661 0.4999 -0.4999 0.8661 20.1078 -140.3162)" display="inline" width="2" height="14.001"/>
		
			<rect x="99.276" y="131.111" transform="matrix(-0.4992 -0.8665 0.8665 -0.4992 30.6604 293.9417)" display="inline" width="1.999" height="13.999"/>
		<rect x="76.46" y="74.219" display="inline" width="14" height="2"/>
		
			<rect x="99.346" y="5.347" transform="matrix(0.5009 -0.8655 0.8655 0.5009 39.4001 93.015)" display="inline" width="2" height="13.999"/>
		
			<rect x="145.254" y="-39.676" transform="matrix(0.8665 -0.4992 0.4992 0.8665 35.837 68.6454)" display="inline" width="1.999" height="14"/>
		<path display="inline" d="M209.053,216.521c-77.459,0-140.25-62.791-140.25-140.251s62.791-140.25,140.25-140.25
			c38.73,0,73.791,15.7,99.17,41.08l15.561-15.56c-14.9-14.89-32.25-26.59-51.57-34.76c-20.02-8.47-41.27-12.76-63.16-12.76
			c-21.889,0-43.139,4.29-63.16,12.76c-19.33,8.17-36.67,19.87-51.568,34.76c-14.891,14.9-26.59,32.25-34.762,51.57
			c-8.469,20.021-12.76,41.271-12.76,63.16s4.291,43.14,12.76,63.161c8.172,19.32,19.871,36.67,34.762,51.57
			c14.898,14.889,32.238,26.59,51.568,34.76c20.021,8.469,41.271,12.76,63.16,12.76c21.891,0,43.141-4.291,63.16-12.76
			c19.32-8.17,36.67-19.871,51.57-34.76l-15.561-15.561C282.844,200.819,247.784,216.521,209.053,216.521z"/>
		<rect x="76.53" y="74.22" display="inline" width="14" height="2"/>
		
			<rect x="99.381" y="5.337" transform="matrix(0.4999 -0.8661 0.8661 0.4999 39.5132 93.1074)" display="inline" width="2" height="14.001"/>
		
			<rect x="317.048" y="6.359" transform="matrix(0.5001 0.8659 -0.8659 0.5001 170.5497 -268.7356)" display="inline" width="1.999" height="13.999"/>
		<rect x="327.875" y="75.248" display="inline" width="14" height="1.999"/>
		
			<rect x="317" y="132.124" transform="matrix(-0.4999 0.8661 -0.8661 -0.4999 597.4666 -66.7364)" display="inline" width="2" height="14"/>
		
			<rect x="99.335" y="131.02" transform="matrix(-0.4988 -0.8667 0.8667 -0.4988 30.7525 293.8233)" display="inline" width="2.001" height="13.999"/>
		<rect x="76.53" y="74.22" display="inline" width="14" height="2"/>
		
			<rect x="99.381" y="5.337" transform="matrix(0.4999 -0.8661 0.8661 0.4999 39.5132 93.1074)" display="inline" width="2" height="14.001"/>
		
			<rect x="317.048" y="6.359" transform="matrix(0.5001 0.8659 -0.8659 0.5001 170.5497 -268.7356)" display="inline" width="1.999" height="13.999"/>
		<rect x="327.875" y="75.248" display="inline" width="14" height="1.999"/>
		<path display="inline" d="M209.164-87.146c-89.67,0-162.36,72.69-162.36,162.36c0,89.68,72.69,162.371,162.36,162.371
			s162.36-72.69,162.36-162.371C371.524-14.445,298.833-87.146,209.164-87.146z M209.164,215.074
			c-77.239,0-139.86-62.62-139.86-139.86c0-77.23,62.621-139.85,139.86-139.85c77.24,0,139.851,62.62,139.851,139.85
			C349.014,152.454,286.404,215.074,209.164,215.074z"/>
		
			<rect x="317" y="132.124" transform="matrix(-0.4999 0.8661 -0.8661 -0.4999 597.4666 -66.7364)" display="inline" width="2" height="14"/>
		
			<rect x="99.335" y="131.02" transform="matrix(-0.4988 -0.8667 0.8667 -0.4988 30.7525 293.8233)" display="inline" width="2.001" height="13.999"/>
		<g display="inline">
			<path fill="#FFFFFF" d="M166.911,160.218v16.889h-14.486v-16.889H166.911z M162.071,174.704v-12.082h-4.808v12.082H162.071z"/>
		</g>
		<g display="inline">
			<path fill="#FFFFFF" d="M181.814,153.247v6.344h-4.802v-6.344h-4.842v8.744h9.644v2.441h-9.644v2.4h14.485v-13.586H181.814z"/>
		</g>
		<g display="inline">
			<path fill="#FFFFFF" d="M201.557,154.917h-4.809v7.242h4.809V154.917z M206.392,153.247v16.154h-14.485v-2.4h9.644v-2.441h-9.644
				v-11.313H206.392z"/>
		</g>
		<g display="inline">
			<path fill="#FFFFFF" d="M226.139,155.081v16.891h-14.486v-2.404h9.646v-2.436h-9.646v-12.051H226.139z M221.299,157.485h-4.808
				v7.242h4.808V157.485z"/>
		</g>
		<g display="inline">
			<path fill="#FFFFFF" d="M245.881,157.649v16.889h-14.486v-2.402h9.647V169.7h-9.647v-12.051H245.881z M241.042,160.054h-4.808
				v7.242h4.808V160.054z"/>
		</g>
		<g display="inline">
			<path fill="#FFFFFF" d="M265.625,160.218v16.889h-14.486v-2.402h9.647v-2.436h-9.647v-12.051H265.625z M260.786,162.622h-4.809
				v7.242h4.809V162.622z"/>
		</g>
	</g>
</g>
</svg>
