<svg xmlns="http://www.w3.org/2000/svg" viewBox="0 0 826.11 369.1"><defs><style>.cls-1{fill:#fff;}.cls-2{fill:#29abe2;}.cls-3,.cls-4,.cls-5{fill:none;}.cls-3,.cls-4,.cls-6{stroke:#d83406;}.cls-3,.cls-4,.cls-5,.cls-6,.cls-7,.cls-8{stroke-miterlimit:10;}.cls-3{stroke-width:20px;}.cls-4{stroke-width:19px;}.cls-5,.cls-7{stroke:#000;}.cls-5{stroke-width:7px;}.cls-6{fill:red;}.cls-8{stroke:#f7931e;}</style></defs><title>TClogo</title><g id="Layer_1" data-name="Layer 1"><path class="cls-1" d="M424.63,518.64a172,172,0,1,1,161.49-231.2c32.62,89.06-13.3,188.05-102.35,220.66A171.37,171.37,0,0,1,424.63,518.64Z" transform="translate(-240.07 -162.04)"/><path d="M424.62,187a159.75,159.75,0,1,1-54.86,9.78A159.13,159.13,0,0,1,424.62,187h0m0-25a184.34,184.34,0,0,0-63.44,11.31c-95.68,35-144.83,141-109.79,236.7a184.34,184.34,0,0,0,236.7,109.79c95.68-35,144.83-141,109.79-236.7A184.57,184.57,0,0,0,424.6,162Z" transform="translate(-240.07 -162.04)"/></g><g id="Layer_2" data-name="Layer 2"><rect class="cls-1" x="222.43" y="116.46" width="351" height="146"/><path class="cls-1" d="M801,291V412H475V291H801m25-25H450V437H826V266Z" transform="translate(-240.07 -162.04)"/><rect class="cls-2" x="184.93" y="176.96" width="0.01" height="144"/><polygon class="cls-2" points="184.94 176.96 184.94 176.96 184.94 320.96 184.94 320.96 184.94 176.96 184.94 176.96"/></g><g id="Layer_3" data-name="Layer 3"><line class="cls-3" x1="185.43" y1="184.46" x2="185.43" y2="322.46"/><line class="cls-4" x1="91.93" y1="186.46" x2="195.43" y2="186.46"/></g><g id="Layer_5" data-name="Layer 5"><line class="cls-5" x1="32.1" y1="184.46" x2="79.77" y2="184.46"/></g><g id="Layer_5_copy" data-name="Layer 5 copy"><line class="cls-5" x1="106.15" y1="56.33" x2="131.71" y2="96.58"/></g><g id="Layer_5_copy_2" data-name="Layer 5 copy 2"><line class="cls-5" x1="184.93" y1="30.62" x2="184.93" y2="78.29"/></g><g id="Layer_5_copy_4" data-name="Layer 5 copy 4"><line class="cls-5" x1="261.85" y1="55.81" x2="238.02" y2="97.1"/></g><g id="Layer_5_copy_3" data-name="Layer 5 copy 3"><line class="cls-5" x1="56.13" y1="104.19" x2="95.74" y2="130.72"/></g><g id="Layer_5_copy_5" data-name="Layer 5 copy 5"><line class="cls-5" x1="268.02" y1="130.56" x2="307.85" y2="104.35"/></g><g id="Layer_11" data-name="Layer 11"><path class="cls-6" d="M456.71,339h6v50.4h-6Z" transform="translate(-240.07 -162.04)"/><path class="cls-6" d="M515,355.56l.72-7.56h-.36l-2.74,6.91-13.1,22.75h-1.8l-13.9-22.82L481.26,348h-.36l1,7.49V389.4h-5.62V339h4.47l15.77,25.78,2.37,5.61h.15l2.23-5.76L516.33,339H521v50.4h-6Z" transform="translate(-240.07 -162.04)"/><path class="cls-6" d="M533.25,339h27.43v5.33H539.22v16.49h19.66v5.32H539.22v17.93H561v5.33H533.25Z" transform="translate(-240.07 -162.04)"/></g><g id="Layer_12" data-name="Layer 12"><path class="cls-7" d="M626.09,359.68a23.45,23.45,0,0,1,11,6.27q4.56,4.6,11.37,18.38l16.85,33.87h-18l-14.78-31.29q-6.39-13.37-11.5-17.23t-13.32-3.86h-16V418.2H574.87V294.27H609.4q20.42,0,31.3,9.21t10.87,26.65q0,12.28-6.68,20T626.09,359.68Zm-34.37-51.63v44h18.35q12,0,17.93-5.39t5.89-16.52q0-10.71-6.27-16.4t-18.22-5.68Z" transform="translate(-240.07 -162.04)"/><path class="cls-7" d="M677.55,370.64V294.27H694.4v84a115.3,115.3,0,0,0,.5,12.91,15.67,15.67,0,0,0,1.74,5.94,17.24,17.24,0,0,0,7.68,7.38,31,31,0,0,0,24.36,0,17.75,17.75,0,0,0,7.72-7.38,15.72,15.72,0,0,0,1.75-5.9,113.46,113.46,0,0,0,.49-12.78V294.27h16.77v76.37q0,19-2.36,27a28.09,28.09,0,0,1-8.18,13.24,36.1,36.1,0,0,1-12.53,7.31,53.1,53.1,0,0,1-31.63,0,37,37,0,0,1-12.62-7.31A28.07,28.07,0,0,1,680,397.57Q677.55,389.4,677.55,370.64Z" transform="translate(-240.07 -162.04)"/><path class="cls-7" d="M769.27,294.68h22.91l48.48,101.69V294.68h17.85V418.2H835.6L787.12,316.51V418.2H769.27Z" transform="translate(-240.07 -162.04)"/><path class="cls-7" d="M959.11,413.8a56.64,56.64,0,0,1-27.39,6.81q-23.82,0-37-16.85t-13.16-47.4q0-30.39,13.24-47.36t36.9-17a56.48,56.48,0,0,1,27.39,6.8V316a46.17,46.17,0,0,0-13.19-7.72,40.1,40.1,0,0,0-14.2-2.66q-16.35,0-24.49,12.62t-8.13,38.1q0,25.39,8.13,38T931.72,407A40.16,40.16,0,0,0,946,404.34a45.54,45.54,0,0,0,13.07-7.72Z" transform="translate(-240.07 -162.04)"/><path class="cls-7" d="M983.77,294.27h16.85v47.48h45.9V294.27h16.85V418.2h-16.85V355.86h-45.9V418.2H983.77Z" transform="translate(-240.07 -162.04)"/><rect class="cls-8" x="567.5" y="435.48" width="498.09" height="20.99" transform="translate(-243.59 -155.53) rotate(-0.46)"/></g></svg>